<!DOCTYPE svg PUBLIC "-//W3C//DTD SVG 1.1//EN" "http://www.w3.org/Graphics/SVG/1.1/DTD/svg11.dtd">
<!-- Uploaded to: SVG Repo, www.svgrepo.com, Transformed by: SVG Repo Mixer Tools -->
<svg xmlns="http://www.w3.org/2000/svg" width="800px" height="800px" viewBox="-2.4 -2.4 28.80 28.80" fill="none" stroke="#ffffff" stroke-width="2" stroke-linecap="round" stroke-linejoin="round">
<g id="SVGRepo_bgCarrier" stroke-width="0">
<rect x="-2.4" y="-2.4" width="28.80" height="28.80" rx="0" fill="#000000" strokewidth="0"/>
</g>
<g id="SVGRepo_tracerCarrier" stroke-linecap="round" stroke-linejoin="round"/>
<g id="SVGRepo_iconCarrier"> <path d="M18 3a3 3 0 00-3 3v12a3 3 0 003 3 3 3 0 003-3 3 3 0 00-3-3H6a3 3 0 00-3 3 3 3 0 003 3 3 3 0 003-3V6a3 3 0 00-3-3 3 3 0 00-3 3 3 3 0 003 3h12a3 3 0 003-3 3 3 0 00-3-3z"/> </g>
</svg>