<?xml version="1.0" encoding="UTF-8"?>
<svg version="1.1" xmlns="http://www.w3.org/2000/svg" width="467" height="463">
<path d="M0 0 C2.07106079 -0.00299674 4.14212103 -0.00640045 6.21318054 -0.01017761 C11.81061046 -0.0189701 17.40802506 -0.02135374 23.00546122 -0.0219934 C26.51131122 -0.02270668 30.01715739 -0.02484628 33.52300644 -0.02749062 C45.77884923 -0.03672884 58.03468118 -0.04082748 70.29052734 -0.04003906 C81.67390553 -0.03943892 93.05723624 -0.04998227 104.44060242 -0.06578273 C114.24741624 -0.07890468 124.05421462 -0.084221 133.86103714 -0.08358365 C139.70321378 -0.08333 145.5453482 -0.08610719 151.38751602 -0.0967617 C156.88859707 -0.10652121 162.38959619 -0.10646865 167.89068031 -0.09924507 C169.89560251 -0.09820887 171.90053002 -0.10050387 173.90544319 -0.10660553 C183.38285905 -0.13355229 192.7627574 0.00492865 202.19284058 1.02372742 C203.25378502 1.13766774 203.25378502 1.13766774 204.33616269 1.25390989 C221.30128097 3.31887511 237.74508768 10.66942051 250.37060547 22.14526367 C251.19044922 22.88389648 252.01029297 23.6225293 252.85498047 24.38354492 C270.35398634 40.9858626 281.47216822 63.14133413 282.46353948 87.4213419 C282.50106926 89.82043986 282.50877478 92.21767909 282.50431824 94.61706543 C282.50658379 95.52747636 282.50884935 96.4378873 282.51118356 97.37588644 C282.51747581 100.40384307 282.51669727 103.43175439 282.51586914 106.4597168 C282.5188637 108.64033058 282.52226691 110.82094383 282.52604675 113.0015564 C282.53486288 118.91107018 282.53722392 124.82056947 282.53786254 130.73008919 C282.53857464 134.42871882 282.54071205 138.12734479 282.54335976 141.82597351 C282.55308411 155.41550612 282.55662562 169.00502735 282.55578432 182.59456319 C282.55535336 193.94083154 282.56672263 205.28705373 282.58165187 216.6333127 C282.59476628 226.97168071 282.60009043 237.31003407 282.59945279 247.64841032 C282.59919886 253.81197411 282.60199174 259.9754979 282.61263084 266.13905334 C282.62237712 271.94377722 282.62234662 277.74842341 282.61511421 283.55315018 C282.61407629 285.67136881 282.61638355 287.78959245 282.62247467 289.90780258 C282.69172694 315.68145069 280.7869493 341.53659696 263.37060547 362.14526367 C262.70158203 362.94706055 262.03255859 363.74885742 261.34326172 364.57495117 C244.5207913 384.02870431 223.2200413 392.7327212 197.9577148 394.9612577 C189.67700803 395.550216 181.36278171 395.43103165 173.06616211 395.41992188 C170.88746467 395.42428036 168.70876876 395.42946725 166.53007507 395.43540955 C160.66639833 395.4486867 154.80278647 395.44939105 148.93909764 395.44684625 C144.02151559 395.4457691 139.10394627 395.45067864 134.18636698 395.45545167 C122.57532526 395.46650723 110.9643159 395.46700621 99.35327148 395.4609375 C87.42217393 395.45489695 75.49119428 395.46722 63.56011683 395.48850757 C53.26993791 395.50618428 42.97979632 395.5121155 32.68960279 395.50886983 C26.56409868 395.50706693 20.43867875 395.50959333 14.31318855 395.52358437 C8.55016199 395.53625786 2.787318 395.53412951 -2.9757061 395.52117348 C-5.07535365 395.51882897 -7.17501444 395.52146482 -9.27464676 395.5297966 C-37.33868728 395.63302468 -63.03884518 391.63532994 -84.22314453 371.55151367 C-94.65830125 361.11635695 -102.15694887 351.17786723 -106.94189453 337.14526367 C-107.18456055 336.43426514 -107.42722656 335.7232666 -107.67724609 334.99072266 C-111.42373297 323.28096398 -111.93576748 311.58935368 -111.96411133 299.40771484 C-111.97507403 297.75135758 -111.98686788 296.09500565 -111.99942017 294.43865967 C-112.03085652 289.95856504 -112.05023635 285.47849362 -112.06704307 280.9983232 C-112.08662618 276.24211786 -112.11630203 271.48597332 -112.14448547 266.72981262 C-112.19052645 258.69945561 -112.22887295 250.66909011 -112.26245117 242.63867188 C-112.29649905 234.51166375 -112.33785535 226.38474073 -112.38745117 218.2578125 C-112.85224965 141.86952222 -112.85224965 141.86952222 -112.27392578 106.82104492 C-112.25805609 105.71917532 -112.24218639 104.61730572 -112.2258358 103.48204613 C-111.76682213 73.50997341 -106.33972545 48.00976738 -84.62939453 26.14526367 C-60.35112937 3.31131457 -31.76960341 -0.00921152 0 0 Z " fill="#020202" transform="translate(142.62939453125,29.854736328125)"/>
<path d="M0 0 C5.5252505 4.59222667 10.59153169 9.50260115 15.625 14.625 C22.87658724 22.66975721 22.87658724 22.66975721 32 28 C32.99 25.03 33.98 22.06 35 19 C35.73992187 18.89300781 36.47984375 18.78601563 37.2421875 18.67578125 C40.18314396 17.95512195 41.72339257 16.99098847 44.125 15.1875 C51.37020824 10.17251393 59.23822384 7.55630325 68 7 C69.10021484 6.92265625 69.10021484 6.92265625 70.22265625 6.84375 C84.74700164 6.27694628 97.32829589 10.8875957 108.25 20.3125 C119.78719399 31.2646065 126.77524271 43.76275444 127.28393555 59.82373047 C127.47952036 74.29700696 122.28458375 88.82119126 112.1875 99.5 C99.28639208 111.09083915 84.40151384 116.13992743 67.20361328 115.2265625 C55.27422944 114.00005372 43.27613134 108.66756998 35 100 C36.08231478 97.47459884 37.06855624 95.93352122 39.0625 94 C41.12650964 92.2034588 41.12650964 92.2034588 41.5 90 C42.47616546 86.09533815 45.79490358 84.13673095 49 82 C48.34 81.01 47.68 80.02 47 79 C44.10490816 80.30943104 42.05407463 81.70266501 39.82714844 83.96166992 C39.23262878 84.55956833 38.63810913 85.15746674 38.02557373 85.77348328 C37.39322815 86.41928848 36.76088257 87.06509369 36.109375 87.73046875 C35.44593079 88.39911453 34.78248657 89.06776031 34.09893799 89.75666809 C31.97781594 91.89558082 29.86347832 94.0410362 27.75 96.1875 C25.65000293 98.31528759 23.54850868 100.44153829 21.44390869 102.56477356 C20.13647456 103.88427409 18.83171857 105.20643605 17.5302124 106.53178406 C14.45881188 109.63622381 11.33881795 112.61715604 8.03173828 115.47045898 C3.84738008 119.08280611 -0.0463122 122.93601896 -3.9296875 126.8671875 C-4.64609406 127.58738068 -5.36250061 128.30757385 -6.10061646 129.04959106 C-8.36121562 131.32228841 -10.61850488 133.59822829 -12.875 135.875 C-15.86954456 138.8960785 -18.86734985 141.91386591 -21.8671875 144.9296875 C-22.55360321 145.62440155 -23.24001892 146.3191156 -23.94723511 147.03488159 C-24.58194733 147.67289703 -25.21665955 148.31091248 -25.87060547 148.96826172 C-26.42827606 149.53116913 -26.98594666 150.09407654 -27.56051636 150.67404175 C-29.69022796 152.63579288 -30.96709177 152.99570762 -33.875 153.375 C-37 153 -37 153 -39.4375 150.8125 C-41 148 -41 148 -41.0625 145.5625 C-38.99227377 140.56960144 -35.4179265 137.29441344 -31.38037109 133.86694336 C-26.68937888 129.79309558 -22.33606005 125.42702055 -17.9765625 121.00390625 C-16.28007702 119.29479372 -14.58345868 117.58581305 -12.88671875 115.87695312 C-10.2381758 113.20344258 -7.59126925 110.528348 -4.94677734 107.85083008 C-2.37767719 105.25171376 0.19745374 102.65869771 2.7734375 100.06640625 C3.96711441 98.8525399 3.96711441 98.8525399 5.18490601 97.614151 C5.91972198 96.87595627 6.65453796 96.13776154 7.41162109 95.37719727 C8.05811615 94.72324478 8.70461121 94.0692923 9.37069702 93.39552307 C11 92 11 92 13 92 C13.23976562 91.4225 13.47953125 90.845 13.7265625 90.25 C15.25718183 87.54559284 17.01279808 86.01819193 19.375 84 C22.42045128 81.36002124 25.3374031 78.69447536 28.08203125 75.74609375 C28.59910645 75.19759766 29.11618164 74.64910156 29.64892578 74.08398438 C30.65570808 73.00658992 31.64833759 71.91574979 32.62451172 70.81054688 C35.27202649 68.00718872 36.67194219 67.03717267 40.55078125 66.59765625 C43.4221947 66.93260029 46.1916531 67.31918863 49 68 C44.90346493 63.09569745 40.5699954 58.46210164 36.0625 53.9375 C35.58522461 53.45571289 35.10794922 52.97392578 34.61621094 52.47753906 C31.97988807 49.85182514 29.27740709 47.36258468 26.4453125 44.94921875 C20.2570417 39.58575615 14.57816015 33.68328534 8.8125 27.875 C7.63890797 26.69637945 6.4650814 25.51799238 5.29101562 24.33984375 C3.13502325 22.1757538 0.98039723 20.01032396 -1.17260742 17.84326172 C-3.77617938 15.22325412 -6.38685144 12.6104549 -9 10 C-8.06409496 8.8944811 -7.12620142 7.79064547 -6.1875 6.6875 C-5.66542969 6.07261719 -5.14335937 5.45773438 -4.60546875 4.82421875 C-3.12779563 3.14520818 -1.58852905 1.57301228 0 0 Z " fill="#050505" transform="translate(242,166)"/>
<path d="M0 0 C10.88856065 9.3963031 19.77737317 21.2192432 21.34375 35.92578125 C22.29957566 52.3796373 18.57044092 66.21429389 8.4296875 79.41796875 C-1.07704969 89.47241919 -14.27731197 96.09735974 -28.08203125 97.19921875 C-42.08521139 97.56513099 -55.24826466 94.57020425 -66.65625 85.92578125 C-68.01393556 84.61725327 -69.3540672 83.28955378 -70.65625 81.92578125 C-69.17903578 78.47376486 -67.21830999 76.27616189 -64.53125 73.67578125 C-63.80679687 72.969375 -63.08234375 72.26296875 -62.3359375 71.53515625 C-61.50449219 70.73851562 -61.50449219 70.73851562 -60.65625 69.92578125 C-57.99800825 71.17705773 -55.76693713 72.54175516 -53.46875 74.36328125 C-44.9917812 80.39531378 -35.85720997 80.99248062 -25.65625 79.92578125 C-15.39227358 77.55717131 -6.83819981 72.29733686 -1 63.40234375 C4.02106744 53.91486166 6.42945183 43.3654052 3.46875 32.8046875 C-1.01932947 21.21540333 -7.62313394 13.47681682 -18.703125 7.89453125 C-27.0954068 4.48713864 -37.63101317 4.42949406 -46.09375 7.55078125 C-50.73940779 9.71408588 -54.73974296 12.64379211 -58.65625 15.92578125 C-62.10826639 14.44856703 -64.30586936 12.48784124 -66.90625 9.80078125 C-67.61265625 9.07632813 -68.3190625 8.351875 -69.046875 7.60546875 C-69.57796875 7.05117187 -70.1090625 6.496875 -70.65625 5.92578125 C-67.66991154 -1.36717163 -58.54298438 -5.03465795 -51.65625 -8.07421875 C-34.57922582 -14.83387415 -14.25883182 -11.13447014 0 0 Z " fill="#F8F8F6" transform="translate(347.65625,184.07421875)"/>
<path d="M0 0 C1.61154041 1.37159274 3.16063669 2.81615462 4.69140625 4.27734375 C3.21419203 7.72936014 1.25346624 9.92696311 -1.43359375 12.52734375 C-2.15804687 13.23375 -2.8825 13.94015625 -3.62890625 14.66796875 C-4.18320313 15.1990625 -4.7375 15.73015625 -5.30859375 16.27734375 C-6.04464844 15.79523438 -6.78070313 15.313125 -7.5390625 14.81640625 C-8.51488281 14.18476563 -9.49070312 13.553125 -10.49609375 12.90234375 C-11.45902344 12.27585938 -12.42195313 11.649375 -13.4140625 11.00390625 C-21.80805497 5.99696337 -31.36125498 5.05378259 -40.92578125 6.73828125 C-52.07905051 9.69163915 -60.58931858 16.77967842 -66.6953125 26.48046875 C-70.8829953 35.12031958 -70.87082818 47.12143723 -68.18359375 56.27734375 C-67.35736887 58.32086355 -67.35736887 58.32086355 -66.30859375 60.27734375 C-65.92960937 61.02113281 -65.550625 61.76492187 -65.16015625 62.53125 C-60.3558227 70.73749604 -52.05077388 77.34990436 -42.80859375 79.875 C-30.47199897 81.86042072 -19.50445873 79.90434066 -9.05859375 73.02734375 C-7.82109375 72.11984375 -6.58359375 71.21234375 -5.30859375 70.27734375 C-1.67859375 73.90734375 1.95140625 77.53734375 5.69140625 81.27734375 C-5.37083053 92.33958053 -17.31664653 97.34306034 -32.99609375 97.52734375 C-46.68166732 97.491399 -57.23699838 92.71014832 -68.55859375 85.08984375 C-81.15135651 72.21088183 -86.66398664 58.40540787 -86.76171875 40.69604492 C-86.52184881 27.18606246 -81.81904808 16.01548851 -72.30859375 6.27734375 C-71.61894531 5.560625 -70.92929688 4.84390625 -70.21875 4.10546875 C-51.11649818 -14.2713811 -21.18558281 -15.80853133 0 0 Z " fill="#F8F8F7" transform="translate(173.30859375,183.72265625)"/>
<path d="M0 0 C0.45890625 0.39832031 0.9178125 0.79664063 1.390625 1.20703125 C4.52271585 3.91142062 7.63877459 6.57991771 11 9 C10.22584113 12.91428641 8.46576159 15.54302619 6.25390625 18.8046875 C3.27405813 24.02174246 2.66673107 28.95590864 2.75 34.875 C2.75894287 35.5868042 2.76788574 36.2986084 2.77709961 37.03198242 C3.01705885 47.8699342 6.49558134 55.57817824 13.59375 63.859375 C21.52477216 71.40162157 31.55705711 73.81376915 42.19970703 73.73217773 C51.81247021 73.23783606 59.91488302 69.12955822 67.0625 62.6875 C75.82257402 52.88508806 76.70461965 41.69055677 76.18798828 29.15380859 C75.60220682 22.44242669 72.55038392 16.87541134 68 12 C69.47721422 8.54798361 71.43794001 6.35038064 74.125 3.75 C74.84945312 3.04359375 75.57390625 2.3371875 76.3203125 1.609375 C76.87460937 1.07828125 77.42890625 0.5471875 78 0 C83.5079637 1.8359879 85.86370795 7.80503147 88.4296875 12.76171875 C94.86670765 26.41658102 95.93567012 39.05729341 91.2578125 53.6796875 C86.32119158 66.71114023 78.24172609 77.11723932 66 84 C52.67161741 89.93397426 37.00525931 93.37706787 22.75 88.25 C21.15200368 87.53177148 19.56647409 86.78460395 18 86 C16.96939453 85.58427734 16.96939453 85.58427734 15.91796875 85.16015625 C3.29269866 79.75644105 -5.72700602 67.70591002 -11.0546875 55.48046875 C-15.48572566 43.85357111 -15.13767183 25.93495502 -10.34765625 14.44921875 C-7.46461198 9.20959916 -4.24012748 4.24012748 0 0 Z " fill="#F8F8F7" transform="translate(188,275)"/>
<path d="M0 0 C1.051875 0.433125 2.10375 0.86625 3.1875 1.3125 C17.44645149 9.86787089 26.00211453 21.99340546 31.20703125 37.625 C34.62458735 52.1706575 30.36849606 67.23572462 22.68359375 79.64453125 C21.24270958 81.66043184 19.82248458 83.33262049 18 85 C14.54798361 83.52278578 12.35038064 81.56205999 9.75 78.875 C9.04359375 78.15054688 8.3371875 77.42609375 7.609375 76.6796875 C7.07828125 76.12539062 6.5471875 75.57109375 6 75 C6.40992188 74.35933594 6.81984375 73.71867187 7.2421875 73.05859375 C7.78101563 72.19363281 8.31984375 71.32867187 8.875 70.4375 C9.40867187 69.59058594 9.94234375 68.74367188 10.4921875 67.87109375 C15.46324488 58.40547932 15.92932828 45.58241412 12.9375 35.375 C7.29396342 23.35181338 -1.36411027 17.23845865 -13.5 12.6875 C-23.58539687 10.7064399 -33.37200946 12.24810324 -42.39453125 17.35546875 C-50.49691128 23.13403042 -55.86415578 30.59246734 -59 40 C-59.62551386 50.59764823 -59.93124012 61.03491906 -53.25 69.875 C-51 73 -51 73 -51.12109375 74.9609375 C-52.24446863 77.56716721 -53.6744204 78.89355982 -55.8125 80.75 C-56.49957031 81.36359375 -57.18664062 81.9771875 -57.89453125 82.609375 C-60 84 -60 84 -64 84 C-73.07014872 74.07455216 -76.40232112 59.17070984 -76.20703125 46.05078125 C-75.32028728 32.98385601 -70.04449698 18.83505754 -60 10 C-42.59634199 -3.60098206 -21.03561655 -9.5840665 0 0 Z " fill="#F8F8F6" transform="translate(250,94)"/>
<path d="M0 0 C3.31640625 0.96875 3.31640625 0.96875 5.31640625 3.96875 C5.88352505 8.30733597 5.82542966 10.26100155 3.24023438 13.85546875 C2.29403032 14.80728951 1.32848837 15.74015327 0.34765625 16.65625 C-0.16607544 17.16244873 -0.67980713 17.66864746 -1.20910645 18.19018555 C-2.85151746 19.80019771 -4.51679747 21.38403812 -6.18359375 22.96875 C-7.27368436 24.03226884 -8.36224252 25.0973608 -9.44921875 26.1640625 C-13.67721337 30.28808222 -17.93164407 34.33526825 -22.41894531 38.17773438 C-27.5295648 42.62469996 -32.21618156 47.47087081 -36.94921875 52.3125 C-38.40834466 53.79370176 -39.86929108 55.27309366 -41.3302269 56.75251007 C-44.90252239 60.37029303 -48.47042765 63.99219408 -52.02246094 67.62988281 C-54.51075111 70.17741343 -57.01095787 72.71268809 -59.51958466 75.2401886 C-60.93101355 76.6690697 -62.32917037 78.11102138 -63.72711182 79.55310059 C-65.00929596 80.84069275 -65.00929596 80.84069275 -66.31738281 82.15429688 C-67.066026 82.91705933 -67.81466919 83.67982178 -68.58599854 84.46569824 C-70.68359375 85.96875 -70.68359375 85.96875 -72.83636475 85.80895996 C-75.21863947 84.72538508 -76.63970152 83.30363602 -78.43359375 81.40625 C-79.0471875 80.76558594 -79.66078125 80.12492187 -80.29296875 79.46484375 C-80.751875 78.97113281 -81.21078125 78.47742188 -81.68359375 77.96875 C-80.09906744 74.03059982 -77.36855054 71.42520895 -74.37109375 68.53125 C-73.89736328 68.06654297 -73.42363281 67.60183594 -72.93554688 67.12304688 C-71.52092989 65.73552242 -70.10227863 64.35211493 -68.68359375 62.96875 C-66.28009955 60.57614777 -63.88656706 58.17500295 -61.5078125 55.7578125 C-60.45013672 54.68660156 -60.45013672 54.68660156 -59.37109375 53.59375 C-58.67371094 52.88476562 -57.97632813 52.17578125 -57.2578125 51.4453125 C-55.27035396 49.53325072 -53.26738881 47.74711616 -51.171875 45.9609375 C-45.2058433 40.7815051 -39.7321262 35.08604562 -34.18359375 29.46875 C-21.77133072 16.90266134 -21.77133072 16.90266134 -15.34228516 11.43554688 C-12.0369148 8.51257586 -9.19172908 5.11439397 -6.2734375 1.8125 C-3.68359375 -0.03125 -3.68359375 -0.03125 0 0 Z " fill="#F7F8F6" transform="translate(247.68359375,135.03125)"/>
<path d="M0 0 C3.92300272 1.82504909 6.73787272 4.18270826 10 7 C9.41590722 10.40688238 8.32836947 12.04344984 5.89233398 14.46411133 C5.23752548 15.12192093 4.58271698 15.77973053 3.9080658 16.45747375 C3.19461502 17.15857773 2.48116425 17.8596817 1.74609375 18.58203125 C1.01181656 19.31443527 0.27753937 20.04683929 -0.47898865 20.80143738 C-2.03661797 22.35234145 -3.59784226 23.89964202 -5.16235352 25.44360352 C-7.53583734 27.78618449 -9.89872509 30.13902553 -12.25976562 32.49414062 C-13.77803025 34.00322375 -15.29689213 35.51170626 -16.81640625 37.01953125 C-17.51568741 37.71456253 -18.21496857 38.40959381 -18.93544006 39.12568665 C-22.21418694 42.35789499 -25.52971255 45.49885404 -29.01586914 48.50708008 C-33.18248426 52.10819351 -37.06088848 55.95077462 -40.9296875 59.8671875 C-41.64609406 60.58738068 -42.36250061 61.30757385 -43.10061646 62.04959106 C-45.36121562 64.32228841 -47.61850488 66.59822829 -49.875 68.875 C-52.86954456 71.8960785 -55.86734985 74.91386591 -58.8671875 77.9296875 C-59.55360321 78.62440155 -60.24001892 79.3191156 -60.94723511 80.03488159 C-61.58194733 80.67289703 -62.21665955 81.31091248 -62.87060547 81.96826172 C-63.42827606 82.53116913 -63.98594666 83.09407654 -64.56051636 83.67404175 C-66.69022796 85.63579288 -67.96709177 85.99570762 -70.875 86.375 C-74 86 -74 86 -76.4375 83.8125 C-78 81 -78 81 -78.0625 78.5625 C-75.99227377 73.56960144 -72.4179265 70.29441344 -68.38037109 66.86694336 C-63.68937888 62.79309558 -59.33606005 58.42702055 -54.9765625 54.00390625 C-53.28007702 52.29479372 -51.58345868 50.58581305 -49.88671875 48.87695312 C-47.2381758 46.20344258 -44.59126925 43.528348 -41.94677734 40.85083008 C-39.37767719 38.25171376 -36.80254626 35.65869771 -34.2265625 33.06640625 C-33.43077789 32.25716202 -32.63499329 31.44791779 -31.81509399 30.614151 C-31.08027802 29.87595627 -30.34546204 29.13776154 -29.58837891 28.37719727 C-28.94188385 27.72324478 -28.29538879 27.0692923 -27.62930298 26.39552307 C-26 25 -26 25 -24 25 C-23.76023438 24.4225 -23.52046875 23.845 -23.2734375 23.25 C-21.74281817 20.54559284 -19.98720192 19.01819193 -17.625 17 C-11.46612217 11.6064798 -5.74083489 5.82961068 0 0 Z " fill="#F8F8F6" transform="translate(279,233)"/>
<path d="M0 0 C8.21094381 5.70532835 15.11278187 14.03662123 22.125 21.125 C24.60380142 23.63057171 27.08602128 26.13268516 29.5703125 28.6328125 C30.12671417 29.19751251 30.68311584 29.76221252 31.25637817 30.34402466 C33.83089253 32.93445534 36.42643696 35.40361384 39.25341797 37.71826172 C41.73938973 39.78349657 43.61226722 41.92314883 45.62451172 44.43432617 C47.10108345 46.11506002 48.66838408 47.48863938 50.3828125 48.92578125 C55.78268002 53.59606995 60.81207297 58.6260113 65.85742188 63.67211914 C67.51936188 65.33183598 69.1891961 66.98334457 70.859375 68.63476562 C71.91715357 69.68961614 72.97446325 70.7449371 74.03125 71.80078125 C74.53112427 72.29347 75.03099854 72.78615875 75.54602051 73.29377747 C79 76.77112877 79 76.77112877 79 79 C77.35546875 80.7265625 77.35546875 80.7265625 75.1875 82.625 C74.47980469 83.25664062 73.77210938 83.88828125 73.04296875 84.5390625 C71 86 71 86 68 86 C66.1340332 84.45874023 66.1340332 84.45874023 64.05078125 82.30859375 C63.28443359 81.52806641 62.51808594 80.74753906 61.72851562 79.94335938 C60.93123047 79.11642578 60.13394531 78.28949219 59.3125 77.4375 C57.74862165 75.82956874 56.18223659 74.22407147 54.61328125 72.62109375 C53.92016846 71.9036499 53.22705566 71.18620605 52.51293945 70.44702148 C50.53821872 68.52410048 48.54590671 66.72878802 46.45776367 64.93579102 C37.08176883 56.79521977 28.42054497 47.80582512 19.60693359 39.06689453 C17.19711022 36.6794866 14.7778662 34.3022601 12.35009766 31.93310547 C9.40111195 29.05512786 6.46961385 26.16038736 3.54977417 23.25285339 C2.43936528 22.15283454 1.32296276 21.05883093 0.20046997 19.97114563 C-1.36498894 18.45183653 -2.90696664 16.91192457 -4.4453125 15.36523438 C-5.32719238 14.49588257 -6.20907227 13.62653076 -7.11767578 12.73083496 C-9.51049296 9.25938794 -9.44654968 7.13334858 -9 3 C-6.82969974 -0.73773934 -4.02791985 -0.75998488 0 0 Z " fill="#F7F7F6" transform="translate(143,201)"/>
<path d="M0 0 C6.278744 5.22127132 11.96475764 10.90151538 17.68359375 16.72265625 C21.41720423 20.49677607 25.17200793 24.13099524 29.27929688 27.49804688 C31.63368679 29.55312729 33.80424073 31.77901621 36 34 C37.32483059 35.32621071 38.65042561 36.65165801 39.9765625 37.9765625 C70.0234375 68.0234375 70.0234375 68.0234375 72.11425781 70.12646484 C73.26904813 71.27377983 74.43739985 72.40788126 75.62792969 73.51806641 C78.33763568 76.05997391 78.96770214 76.76584053 79.5 80.625 C79 84 79 84 77.875 85.9375 C75.1246077 87.49605564 73.12154162 87.28509212 70 87 C67.75830078 85.56298828 67.75830078 85.56298828 65.5703125 83.4453125 C64.27915527 82.21022949 64.27915527 82.21022949 62.96191406 80.95019531 C61.97301191 79.9684033 60.98582353 78.98488324 60 78 C59.44163452 77.44856323 58.88326904 76.89712646 58.3079834 76.32897949 C53.79900997 71.87525181 49.33339416 67.37927815 44.875 62.875 C34.76892131 52.55822075 34.76892131 52.55822075 24.08398438 42.85693359 C18.76232907 38.11507438 13.83221532 32.93182579 8.8125 27.875 C7.63890797 26.69637945 6.4650814 25.51799238 5.29101562 24.33984375 C3.13502325 22.1757538 0.98039723 20.01032396 -1.17260742 17.84326172 C-3.77617938 15.22325412 -6.38685144 12.6104549 -9 10 C-8.06409496 8.8944811 -7.12620142 7.79064547 -6.1875 6.6875 C-5.66542969 6.07261719 -5.14335937 5.45773438 -4.60546875 4.82421875 C-3.12779563 3.14520818 -1.58852905 1.57301228 0 0 Z " fill="#F7F7F5" transform="translate(242,166)"/>
<path d="M0 0 C-7.27724887 12.78643376 -19.43520733 29.14506911 -34 34 C-35.06737495 18.78567131 -35.06737495 18.78567131 -32.7578125 14.921875 C-31.0625 13.625 -31.0625 13.625 -29.0859375 12.46875 C-26.28369674 10.49563666 -25.02593696 8.00255351 -23.1875 5.125 C-17.16804225 -2.65188685 -8.89803809 -0.95027591 0 0 Z " fill="#F3F4F2" transform="translate(322,287)"/>
<path d="M0 0 C15.0300235 -1.78574537 15.0300235 -1.78574537 19.8515625 1.11328125 C22.53013945 3.46188857 24.6380068 6.12008704 26.73828125 8.984375 C28.80540845 12.09806382 28.80540845 12.09806382 31.7734375 13.8125 C34.33553733 16.32965071 34.34977535 16.88742268 34.48828125 20.328125 C34.45518977 21.96946243 34.39575882 23.61044165 34.3125 25.25 C34.28994141 26.09046875 34.26738281 26.9309375 34.24414062 27.796875 C34.18537714 29.86534964 34.09569885 31.93290488 34 34 C19.52261822 26.10982693 9.15344219 14.52807431 0 1 C0 0.67 0 0.34 0 0 Z " fill="#F6F6F4" transform="translate(134,287)"/>
<path d="M0 0 C1.68641698 14.6837519 1.68641698 14.6837519 -2.23828125 20.07421875 C-5.125 22.5625 -5.125 22.5625 -8.21484375 24.8359375 C-11.01856993 27.01442881 -12.07872702 28.59738161 -13.6875 31.6875 C-14.98828125 33.63671875 -14.98828125 33.63671875 -17 35 C-22.46659676 35.37606698 -27.59655847 34.82142579 -33 34 C-30.9904613 28.43736389 -27.74411618 24.51306135 -24 20 C-23.33871094 19.19046875 -22.67742187 18.3809375 -21.99609375 17.546875 C-7.01503538 0 -7.01503538 0 0 0 Z " fill="#F5F6F4" transform="translate(168,133)"/>
<path d="M0 0 C5.15681464 2.73467443 9.27901845 5.73544834 13.5 9.75 C14.34800171 10.54724487 14.34800171 10.54724487 15.21313477 11.3605957 C22.06161024 17.86620404 28.31627307 24.73056272 33 33 C33 33.66 33 34.32 33 35 C19.95281751 36.93720857 19.95281751 36.93720857 15.12890625 33.77246094 C12.23582928 31.14999491 9.83741383 28.21936182 7.453125 25.13671875 C5.30503593 21.9854456 5.30503593 21.9854456 2.71875 20.6875 C-0.34090452 17.68347556 0.31593179 13.4092614 0.25 9.3125 C0.22035156 8.41982422 0.19070313 7.52714844 0.16015625 6.60742188 C0.08948573 4.40485723 0.03678061 2.20334869 0 0 Z " fill="#F7F8F5" transform="translate(288,132)"/>
<path d="M0 0 C4.85206522 1.98043478 4.85206522 1.98043478 6.0625 4.25 C5.90394364 8.54125129 5.4792533 10.72638688 2.77734375 14.12109375 C1.40255859 15.39146484 1.40255859 15.39146484 0 16.6875 C-0.91910156 17.55246094 -1.83820313 18.41742188 -2.78515625 19.30859375 C-3.49542969 19.94925781 -4.20570313 20.58992188 -4.9375 21.25 C-5.40800781 20.84007812 -5.87851562 20.43015625 -6.36328125 20.0078125 C-6.98589844 19.46898437 -7.60851562 18.93015625 -8.25 18.375 C-8.86488281 17.84132812 -9.47976563 17.30765625 -10.11328125 16.7578125 C-12.07248212 15.0859553 -12.07248212 15.0859553 -14.9375 13.25 C-14.28752701 8.01410647 -10.35803305 5.34841506 -6.58203125 2.05859375 C-3.9375 0.25 -3.9375 0.25 0 0 Z " fill="#F2F2EF" transform="translate(315.9375,200.75)"/>
<path d="M0 0 C2.475 0.99 2.475 0.99 5 2 C5 2.66 5 3.32 5 4 C5.639375 4.226875 6.27875 4.45375 6.9375 4.6875 C9 6 9 6 9.62890625 8.58203125 C9.75136719 9.37996094 9.87382812 10.17789063 10 11 C9.44570312 11.48210937 8.89140625 11.96421875 8.3203125 12.4609375 C7.59585938 13.09257812 6.87140625 13.72421875 6.125 14.375 C5.40570313 15.00148437 4.68640625 15.62796875 3.9453125 16.2734375 C2.5923402 17.47426834 1.2791655 18.7208345 0 20 C-6.05240175 20.55021834 -6.05240175 20.55021834 -8.9375 18.875 C-10.54576453 16.03688613 -10.44190253 14.21957561 -10 11 C-7.44443455 6.18374205 -4.23682418 3.27390959 0 0 Z " fill="#F5F5F3" transform="translate(144,233)"/>
<path d="M0 0 C2.5 1.6875 2.5 1.6875 5 4 C6.3921875 5.2375 6.3921875 5.2375 7.8125 6.5 C10 9 10 9 10 13 C8.609375 14.95703125 8.609375 14.95703125 6.75 16.8125 C6.14671875 17.43769531 5.5434375 18.06289062 4.921875 18.70703125 C3 20 3 20 1.06640625 19.95703125 C-3.53118978 17.82770984 -7.00073676 14.00763622 -10 10 C-10.3125 6.125 -10.3125 6.125 -9 3 C-6.28535462 -0.00550024 -3.97163828 -0.67808459 0 0 Z " fill="#F5F5F3" transform="translate(211,135)"/>
<path d="M0 0 C4.7049926 2.3524963 8.24281686 5.52988248 11 10 C11.625 13.75 11.625 13.75 11 17 C9.4375 19 9.4375 19 7 20 C2.58717238 20.34610413 0.94706721 19.80380067 -2.453125 16.91796875 C-4.70692866 14.66770881 -6.8816605 12.37772801 -9 10 C-7.61811547 6.78956118 -6.07578097 4.95063635 -3.375 2.75 C-2.74335938 2.22921875 -2.11171875 1.7084375 -1.4609375 1.171875 C-0.73777344 0.59179688 -0.73777344 0.59179688 0 0 Z " fill="#F4F4F1" transform="translate(242,299)"/>
<path d="M0 0 C2.66698331 0.73853737 2.66698331 0.73853737 5.5625 -0.5 C6.8825 1.15 8.2025 2.8 9.5625 4.5 C8.5725 4.995 8.5725 4.995 7.5625 5.5 C6.9025 5.17 6.2425 4.84 5.5625 4.5 C5.5625 5.49 5.5625 6.48 5.5625 7.5 C4.9025 7.5 4.2425 7.5 3.5625 7.5 C3.2325 8.82 2.9025 10.14 2.5625 11.5 C2.2221875 10.1696875 2.2221875 10.1696875 1.875 8.8125 C0.39061487 5.06619468 -1.46153485 3.16270566 -4.4375 0.5 C-2.4375 -0.5 -2.4375 -0.5 0 0 Z " fill="#131313" transform="translate(286.4375,233.5)"/>
<path d="M0 0 C2 2 2 2 2 6 C2.515625 6.680625 3.03125 7.36125 3.5625 8.0625 C4.036875 8.701875 4.51125 9.34125 5 10 C4 13 4 13 1.9375 14.1875 C1.298125 14.455625 0.65875 14.72375 0 15 C-1.65 13.35 -3.3 11.7 -5 10 C-4.34 9.67 -3.68 9.34 -3 9 C-2.09274566 6.88672575 -2.09274566 6.88672575 -1.375 4.4375 C-1.11460937 3.61121094 -0.85421875 2.78492188 -0.5859375 1.93359375 C-0.39257812 1.29550781 -0.19921875 0.65742188 0 0 Z " fill="#0C0D0D" transform="translate(277,185)"/>
<path d="M0 0 C3.63 2.31 7.26 4.62 11 7 C11.66 5.68 12.32 4.36 13 3 C13 4.98 13 6.96 13 9 C11.25 9.6875 11.25 9.6875 9 10 C7.64082143 9.03542166 6.30915279 8.03145371 5 7 C2.35065178 6.28566879 2.35065178 6.28566879 0 6 C-0.38218767 4.34385343 -0.71395102 2.67542976 -1 1 C-0.67 0.67 -0.34 0.34 0 0 Z " fill="#0F110F" transform="translate(156,313)"/>
<path d="M0 0 C2.0625 1.75 2.0625 1.75 4 4 C3.81921373 6.80218724 3.22721906 7.79055494 1.15234375 9.703125 C0.42144531 10.21359375 -0.30945313 10.7240625 -1.0625 11.25 C-1.79597656 11.77078125 -2.52945313 12.2915625 -3.28515625 12.828125 C-3.85105469 13.21484375 -4.41695312 13.6015625 -5 14 C-4.67 13.236875 -4.34 12.47375 -4 11.6875 C-2.82563314 9.00930865 -2.82563314 9.00930865 -3 6 C-2.46646021 3.06553116 -2.17413762 2.17413762 0 0 Z " fill="#F7F8F5" transform="translate(195,163)"/>
<path d="M0 0 C0.99 0.66 1.98 1.32 3 2 C3 2.66 3 3.32 3 4 C3.83333333 6.16666667 3.83333333 6.16666667 6 7 C6.625 9.0625 6.625 9.0625 7 11 C4 11 4 11 2.17578125 9.57421875 C1.56089844 8.95160156 0.94601563 8.32898438 0.3125 7.6875 C-0.62142578 6.76517578 -0.62142578 6.76517578 -1.57421875 5.82421875 C-3 4 -3 4 -3 1 C-2.01 0.67 -1.02 0.34 0 0 Z " fill="#E4E4E1" transform="translate(166,236)"/>
<path d="M0 0 C1.98 1.65 3.96 3.3 6 5 C5.34 6.32 4.68 7.64 4 9 C3.01 9 2.02 9 1 9 C0.01 9.495 0.01 9.495 -1 10 C-1.66 9.34 -2.32 8.68 -3 8 C-2.67 7.401875 -2.34 6.80375 -2 6.1875 C-0.79212012 3.94613529 -0.79212012 3.94613529 -1 1 C-0.67 0.67 -0.34 0.34 0 0 Z " fill="#0D0D0B" transform="translate(147,224)"/>
<path d="M0 0 C0.8353125 0.495 0.8353125 0.495 1.6875 1 C4.30284522 2.1309601 6.1806646 2.15662974 9 2 C5.54319097 4.76544722 1.85658398 6.84921278 -2 9 C-2.66 7.35 -3.32 5.7 -4 4 C-2.68 2.68 -1.36 1.36 0 0 Z " fill="#121212" transform="translate(109,176)"/>
<path d="M0 0 C0.66 0 1.32 0 2 0 C0.5140084 4.59306496 -1.85014682 7.43569245 -5 11 C-5.99 10.67 -6.98 10.34 -8 10 C-7.25 7.0625 -7.25 7.0625 -6 4 C-4 3.3125 -4 3.3125 -2 3 C-1.34 2.01 -0.68 1.02 0 0 Z " fill="#0F0D0C" transform="translate(410,382)"/>
<path d="M0 0 C0.66 0 1.32 0 2 0 C1.62992126 7.4015748 1.62992126 7.4015748 -1.5 10.375 C-2.325 10.91125 -3.15 11.4475 -4 12 C-4.33 12.66 -4.66 13.32 -5 14 C-5.66 13.67 -6.32 13.34 -7 13 C-7 9.42808296 -6.41190492 9.02077328 -4.0625 6.5 C-1.92527675 4.19604302 -1.01747885 3.05243655 0 0 Z " fill="#0D0E0C" transform="translate(322,207)"/>
<path d="M0 0 C0.99 0.66 1.98 1.32 3 2 C2.75 3.875 2.75 3.875 2 6 C-0.0625 7.25 -0.0625 7.25 -2 8 C-3.32 6.35 -4.64 4.7 -6 3 C-4.02 2.67 -2.04 2.34 0 2 C0 1.34 0 0.68 0 0 Z " fill="#F1F1F0" transform="translate(268,171)"/>
<path d="M0 0 C0.66 0.33 1.32 0.66 2 1 C1.61479436 3.53910197 1.29902057 4.72751123 -0.62890625 6.484375 C-1.26699219 6.90203125 -1.90507812 7.3196875 -2.5625 7.75 C-3.20316406 8.17796875 -3.84382812 8.6059375 -4.50390625 9.046875 C-5.24447266 9.51867187 -5.24447266 9.51867187 -6 10 C-6.66 9.01 -7.32 8.02 -8 7 C-7.38125 6.731875 -6.7625 6.46375 -6.125 6.1875 C-3.7004767 5.04443152 -3.7004767 5.04443152 -2 2 C-1.34 2 -0.68 2 0 2 C0 1.34 0 0.68 0 0 Z " fill="#131312" transform="translate(161,132)"/>
<path d="M0 0 C0.66 0.33 1.32 0.66 2 1 C1.071875 1.886875 0.14375 2.77375 -0.8125 3.6875 C-3.40073591 6.25137605 -5.15079024 8.85634341 -7 12 C-7.66 12 -8.32 12 -9 12 C-9 12.66 -9 13.32 -9 14 C-9.66 13.67 -10.32 13.34 -11 13 C-7.61227103 8.30840284 -4.21814817 3.9700218 0 0 Z " fill="#1C1C1B" transform="translate(205,112)"/>
<path d="M0 0 C0.66 0.33 1.32 0.66 2 1 C0.35 2.65 -1.3 4.3 -3 6 C-2.67 6.66 -2.34 7.32 -2 8 C-5.96 9.98 -5.96 9.98 -10 12 C-8.16614077 8.33228155 -6.74937171 6.53165004 -3.875 3.75 C-3.15054687 3.04359375 -2.42609375 2.3371875 -1.6796875 1.609375 C-1.12539063 1.07828125 -0.57109375 0.5471875 0 0 Z " fill="#E3E3E0" transform="translate(266,275)"/>
<path d="M0 0 C4.31392226 0.4793247 6.16569547 1.7457985 9 5 C8.67 5.99 8.34 6.98 8 8 C6.85073734 7.04578192 5.70569459 6.08647955 4.5625 5.125 C3.92441406 4.59132812 3.28632813 4.05765625 2.62890625 3.5078125 C1 2 1 2 0 0 Z " fill="#10110F" transform="translate(299,221)"/>
<path d="M0 0 C-0.165 0.598125 -0.33 1.19625 -0.5 1.8125 C-1.1114124 4.11344336 -1.1114124 4.11344336 -1 7 C-2.98 5.35 -4.96 3.7 -7 2 C-5.26578631 -1.46842738 -3.40984787 -1.13661596 0 0 Z " fill="#121213" transform="translate(256,171)"/>
<path d="M0 0 C1.1446875 0.2784375 1.1446875 0.2784375 2.3125 0.5625 C5.08967375 1.22819173 5.08967375 1.22819173 8 0 C8.33 0.99 8.66 1.98 9 3 C8.34 3.66 7.68 4.32 7 5 C5.0625 4.875 5.0625 4.875 3 4 C1.25 1.9375 1.25 1.9375 0 0 Z " fill="#E6E6E5" transform="translate(207,150)"/>
<path d="M0 0 C0 3 0 3 -2.375 5.6875 C-5 8 -5 8 -7 8 C-6.875 5.6875 -6.875 5.6875 -6 3 C-2.9375 1.1875 -2.9375 1.1875 0 0 Z " fill="#EEEEED" transform="translate(177,188)"/>
<path d="M0 0 C2.0625 1.75 2.0625 1.75 4 4 C3.75 6.25 3.75 6.25 3 8 C1.68 7.34 0.36 6.68 -1 6 C-0.67 4.02 -0.34 2.04 0 0 Z " fill="#DFE0DD" transform="translate(195,163)"/>
<path d="M0 0 C0 3.86695678 -1.41909971 6.5088452 -3 10 C-3.99 9.67 -4.98 9.34 -6 9 C-5.52797514 4.75177626 -3.03344482 2.80010291 0 0 Z " fill="#D9DAD5" transform="translate(152,144)"/>
<path d="M0 0 C2.31 0.33 4.62 0.66 7 1 C6.67 2.65 6.34 4.3 6 6 C3.97945196 4.35830472 1.97956942 2.69088222 0 1 C0 0.67 0 0.34 0 0 Z " fill="#121212" transform="translate(210,266)"/>
<path d="M0 0 C1.98 0.99 3.96 1.98 6 3 C5.67 4.32 5.34 5.64 5 7 C2.69 5.35 0.38 3.7 -2 2 C-1.34 1.34 -0.68 0.68 0 0 Z " fill="#E3E3E1" transform="translate(249,109)"/>
<path d="M0 0 C-0.33 0.99 -0.66 1.98 -1 3 C-3.5625 4.1875 -3.5625 4.1875 -6 5 C-6 4.01 -6 3.02 -6 2 C-6.33 1.67 -6.66 1.34 -7 1 C-3.375 -1.125 -3.375 -1.125 0 0 Z " fill="#161618" transform="translate(99,35)"/>
<path d="M0 0 C2.475 0.99 2.475 0.99 5 2 C0.25 5.875 0.25 5.875 -2 7 C-2.33 6.01 -2.66 5.02 -3 4 C-1.5625 1.8125 -1.5625 1.8125 0 0 Z " fill="#141413" transform="translate(283,178)"/>
<path d="M0 0 C0.99 0.33 1.98 0.66 3 1 C2.979375 1.7425 2.95875 2.485 2.9375 3.25 C2.99328688 5.70462279 3.3069904 7.66109261 4 10 C3.34 10 2.68 10 2 10 C1.34 6.7 0.68 3.4 0 0 Z " fill="#0E0C0D" transform="translate(33,355)"/>
<path d="M0 0 C2 1.375 2 1.375 4 3 C4 3.66 4 4.32 4 5 C1.5 6.625 1.5 6.625 -1 8 C-0.67 5.36 -0.34 2.72 0 0 Z " fill="#E5E5E5" transform="translate(218,275)"/>
<path d="M0 0 C0.66 0 1.32 0 2 0 C2 0.66 2 1.32 2 2 C1.01 2.66 0.02 3.32 -1 4 C-1 4.99 -1 5.98 -1 7 C-2.65 7 -4.3 7 -6 7 C-5.04882866 5.8274869 -4.08882991 4.66212985 -3.125 3.5 C-2.59132813 2.8503125 -2.05765625 2.200625 -1.5078125 1.53125 C-0.76144531 0.77328125 -0.76144531 0.77328125 0 0 Z " fill="#D6D6D5" transform="translate(287,254)"/>
<path d="M0 0 C1.32 1.32 2.64 2.64 4 4 C3.01 4 2.02 4 1 4 C-0.68236471 4.62599617 -2.3523962 5.28752268 -4 6 C-2.84826645 3.53199953 -1.95216435 1.95216435 0 0 Z " fill="#ECECEB" transform="translate(188,275)"/>
<path d="M0 0 C-0.375 2.4375 -0.375 2.4375 -1 5 C-1.99 5.495 -1.99 5.495 -3 6 C-3.66 5.34 -4.32 4.68 -5 4 C-4.67 3.01 -4.34 2.02 -4 1 C-2 0 -2 0 0 0 Z " fill="#191917" transform="translate(149,228)"/>
<path d="M0 0 C2.475 0.99 2.475 0.99 5 2 C5 2.99 5 3.98 5 5 C4.01 5 3.02 5 2 5 C1.34 3.35 0.68 1.7 0 0 Z " fill="#EAEAE6" transform="translate(344,202)"/>
<path d="M0 0 C0.33 0.66 0.66 1.32 1 2 C1.66 2.33 2.32 2.66 3 3 C1.35 4.65 -0.3 6.3 -2 8 C-1.125 1.125 -1.125 1.125 0 0 Z " fill="#C8C8C6" transform="translate(203,137)"/>
<path d="M0 0 C1.65 0.33 3.3 0.66 5 1 C5 1.66 5 2.32 5 3 C2.69 3 0.38 3 -2 3 C-1.34 2.01 -0.68 1.02 0 0 Z " fill="#0C0C0C" transform="translate(213,364)"/>
<path d="M0 0 C0.33 0 0.66 0 1 0 C1 1.98 1 3.96 1 6 C-0.32 6.33 -1.64 6.66 -3 7 C-3.66 5.68 -4.32 4.36 -5 3 C-3.68 3.33 -2.36 3.66 -1 4 C-0.67 2.68 -0.34 1.36 0 0 Z " fill="#202221" transform="translate(168,316)"/>
<path d="M0 0 C1.32 1.32 2.64 2.64 4 4 C3.67 4.99 3.34 5.98 3 7 C1.68 5.68 0.36 4.36 -1 3 C-0.67 2.01 -0.34 1.02 0 0 Z " fill="#181816" transform="translate(134,288)"/>
<path d="M0 0 C1.65 1.65 3.3 3.3 5 5 C4.67 5.66 4.34 6.32 4 7 C3.34 7 2.68 7 2 7 C1.01 5.02 0.02 3.04 -1 1 C-0.67 0.67 -0.34 0.34 0 0 Z " fill="#F1F1EF" transform="translate(150,208)"/>
<path d="M0 0 C0.33 0.66 0.66 1.32 1 2 C0.0625 4.125 0.0625 4.125 -1 6 C-2.32 5.67 -3.64 5.34 -5 5 C-3.35 3.35 -1.7 1.7 0 0 Z " fill="#131312" transform="translate(276,169)"/>
<path d="M0 0 C0.33 0.99 0.66 1.98 1 3 C1.66 3.33 2.32 3.66 3 4 C0.36 4.66 -2.28 5.32 -5 6 C-3.35 4.02 -1.7 2.04 0 0 Z " fill="#E9E9E5" transform="translate(211,167)"/>
<path d="M0 0 C2.31 0.66 4.62 1.32 7 2 C4.64561267 3.42944945 3.51967567 4.08661261 0.75 3.625 C0.1725 3.41875 -0.405 3.2125 -1 3 C-0.67 2.01 -0.34 1.02 0 0 Z " fill="#171717" transform="translate(238,107)"/>
</svg>
